<svg xmlns="http://www.w3.org/2000/svg" viewBox="0 0 64 64" role="img" aria-labelledby="title desc">
  <title id="title">Startify favicon</title>
  <desc id="desc">A rounded square with the letter S for Startify.</desc>
  <defs>
    <linearGradient id="bg" x1="8" y1="8" x2="56" y2="56" gradientUnits="userSpaceOnUse">
      <stop offset="0" stop-color="#dff0f3"/>
      <stop offset="1" stop-color="#f4ddd0"/>
    </linearGradient>
  </defs>
  <rect x="6" y="6" width="52" height="52" rx="18" fill="url(#bg)"/>
  <path d="M39.6 21.8c-1.9-2-4.6-3-8-3-5.6 0-9.8 3.1-9.8 7.8 0 4.1 3.1 6.3 8.6 7.2l3.1.5c2.8.4 4.1 1.2 4.1 2.8 0 1.9-2 3.2-5.2 3.2-3 0-5.4-1-7.4-3l-4.1 4.1c2.8 3 6.8 4.6 11.5 4.6 6.5 0 11-3.1 11-8.3 0-4.3-2.6-6.4-8.3-7.4l-3.1-.5c-2.9-.5-4.3-1.2-4.3-2.8 0-1.9 1.8-3.1 4.7-3.1 2.6 0 4.8.8 6.3 2.4z" fill="#2a2621"/>
</svg>
